G04 #@! TF.GenerationSoftware,KiCad,Pcbnew,8.0.8*
G04 #@! TF.CreationDate,2025-02-28T08:34:03-05:00*
G04 #@! TF.ProjectId,VWS_SDR,5657535f-5344-4522-9e6b-696361645f70,rev?*
G04 #@! TF.SameCoordinates,Original*
G04 #@! TF.FileFunction,Soldermask,Top*
G04 #@! TF.FilePolarity,Negative*
%FSLAX46Y46*%
G04 Gerber Fmt 4.6, Leading zero omitted, Abs format (unit mm)*
G04 Created by KiCad (PCBNEW 8.0.8) date 2025-02-28 08:34:03*
%MOMM*%
%LPD*%
G01*
G04 APERTURE LIST*
G04 Aperture macros list*
%AMRoundRect*
0 Rectangle with rounded corners*
0 $1 Rounding radius*
0 $2 $3 $4 $5 $6 $7 $8 $9 X,Y pos of 4 corners*
0 Add a 4 corners polygon primitive as box body*
4,1,4,$2,$3,$4,$5,$6,$7,$8,$9,$2,$3,0*
0 Add four circle primitives for the rounded corners*
1,1,$1+$1,$2,$3*
1,1,$1+$1,$4,$5*
1,1,$1+$1,$6,$7*
1,1,$1+$1,$8,$9*
0 Add four rect primitives between the rounded corners*
20,1,$1+$1,$2,$3,$4,$5,0*
20,1,$1+$1,$4,$5,$6,$7,0*
20,1,$1+$1,$6,$7,$8,$9,0*
20,1,$1+$1,$8,$9,$2,$3,0*%
%AMFreePoly0*
4,1,9,3.862500,-0.866500,0.737500,-0.866500,0.737500,-0.450000,-0.737500,-0.450000,-0.737500,0.450000,0.737500,0.450000,0.737500,0.866500,3.862500,0.866500,3.862500,-0.866500,3.862500,-0.866500,$1*%
G04 Aperture macros list end*
%ADD10O,1.700000X1.700000*%
%ADD11R,1.700000X3.500000*%
%ADD12R,1.700000X1.700000*%
%ADD13R,3.500000X1.700000*%
%ADD14RoundRect,0.250000X-0.650000X0.412500X-0.650000X-0.412500X0.650000X-0.412500X0.650000X0.412500X0*%
%ADD15RoundRect,0.250001X-0.462499X-0.624999X0.462499X-0.624999X0.462499X0.624999X-0.462499X0.624999X0*%
%ADD16RoundRect,0.250000X-0.412500X-0.650000X0.412500X-0.650000X0.412500X0.650000X-0.412500X0.650000X0*%
%ADD17RoundRect,0.250000X-0.625000X0.400000X-0.625000X-0.400000X0.625000X-0.400000X0.625000X0.400000X0*%
%ADD18C,2.050000*%
%ADD19C,2.250000*%
%ADD20RoundRect,0.250001X0.462499X0.624999X-0.462499X0.624999X-0.462499X-0.624999X0.462499X-0.624999X0*%
%ADD21RoundRect,0.250000X-0.400000X-0.625000X0.400000X-0.625000X0.400000X0.625000X-0.400000X0.625000X0*%
%ADD22C,2.000000*%
%ADD23RoundRect,0.250000X0.400000X0.625000X-0.400000X0.625000X-0.400000X-0.625000X0.400000X-0.625000X0*%
%ADD24RoundRect,0.250000X0.412500X0.650000X-0.412500X0.650000X-0.412500X-0.650000X0.412500X-0.650000X0*%
%ADD25RoundRect,0.250001X-0.624999X0.462499X-0.624999X-0.462499X0.624999X-0.462499X0.624999X0.462499X0*%
%ADD26RoundRect,0.250000X0.650000X-0.412500X0.650000X0.412500X-0.650000X0.412500X-0.650000X-0.412500X0*%
%ADD27C,5.700000*%
%ADD28RoundRect,0.250000X0.625000X-0.400000X0.625000X0.400000X-0.625000X0.400000X-0.625000X-0.400000X0*%
%ADD29RoundRect,0.250001X0.624999X-0.462499X0.624999X0.462499X-0.624999X0.462499X-0.624999X-0.462499X0*%
%ADD30RoundRect,0.150000X0.150000X-0.825000X0.150000X0.825000X-0.150000X0.825000X-0.150000X-0.825000X0*%
%ADD31RoundRect,0.225000X-0.425000X-0.225000X0.425000X-0.225000X0.425000X0.225000X-0.425000X0.225000X0*%
%ADD32FreePoly0,0.000000*%
%ADD33RoundRect,0.150000X-0.150000X0.825000X-0.150000X-0.825000X0.150000X-0.825000X0.150000X0.825000X0*%
%ADD34R,1.600000X1.600000*%
%ADD35C,1.600000*%
%ADD36O,1.500000X3.000000*%
%ADD37O,2.500000X3.500000*%
%ADD38O,3.500000X2.500000*%
%ADD39O,3.100000X2.100000*%
G04 APERTURE END LIST*
D10*
X88340000Y-125280000D03*
D11*
X88340000Y-126180000D03*
D10*
X90880000Y-125280000D03*
D11*
X90880000Y-126180000D03*
D12*
X93420000Y-125280000D03*
D11*
X93420000Y-126180000D03*
D10*
X95960000Y-125280000D03*
D11*
X95960000Y-126180000D03*
D10*
X98500000Y-125280000D03*
D11*
X98500000Y-126180000D03*
D10*
X101040000Y-125280000D03*
D11*
X101040000Y-126180000D03*
D10*
X103580000Y-125280000D03*
D11*
X103580000Y-126180000D03*
D12*
X106120000Y-125280000D03*
D11*
X106120000Y-126180000D03*
D10*
X108660000Y-125280000D03*
D11*
X108660000Y-126180000D03*
D10*
X111200000Y-125280000D03*
D11*
X111200000Y-126180000D03*
D10*
X113740000Y-125280000D03*
D11*
X113740000Y-126180000D03*
D10*
X116280000Y-125280000D03*
D11*
X116280000Y-126180000D03*
D12*
X118820000Y-125280000D03*
D11*
X118820000Y-126180000D03*
D10*
X121360000Y-125280000D03*
D11*
X121360000Y-126180000D03*
D10*
X123900000Y-125280000D03*
D11*
X123900000Y-126180000D03*
D10*
X126440000Y-125280000D03*
D11*
X126440000Y-126180000D03*
D10*
X128980000Y-125280000D03*
D11*
X128980000Y-126180000D03*
D12*
X131520000Y-125280000D03*
D11*
X131520000Y-126180000D03*
D10*
X134060000Y-125280000D03*
D11*
X134060000Y-126180000D03*
D10*
X136600000Y-125280000D03*
D11*
X136600000Y-126180000D03*
D10*
X136600000Y-107500000D03*
D11*
X136600000Y-106600000D03*
D10*
X134060000Y-107500000D03*
D11*
X134060000Y-106600000D03*
D12*
X131520000Y-107500000D03*
D11*
X131520000Y-106600000D03*
D10*
X128980000Y-107500000D03*
D11*
X128980000Y-106600000D03*
D10*
X126440000Y-107500000D03*
D11*
X126440000Y-106600000D03*
D10*
X123900000Y-107500000D03*
D11*
X123900000Y-106600000D03*
D10*
X121360000Y-107500000D03*
D11*
X121360000Y-106600000D03*
D12*
X118820000Y-107500000D03*
D11*
X118820000Y-106600000D03*
D10*
X116280000Y-107500000D03*
D11*
X116280000Y-106600000D03*
D10*
X113740000Y-107500000D03*
D11*
X113740000Y-106600000D03*
D10*
X111200000Y-107500000D03*
D11*
X111200000Y-106600000D03*
D10*
X108660000Y-107500000D03*
D11*
X108660000Y-106600000D03*
D12*
X106120000Y-107500000D03*
D11*
X106120000Y-106600000D03*
D10*
X103580000Y-107500000D03*
D11*
X103580000Y-106600000D03*
D10*
X101040000Y-107500000D03*
D11*
X101040000Y-106600000D03*
D10*
X98500000Y-107500000D03*
D11*
X98500000Y-106600000D03*
D10*
X95960000Y-107500000D03*
D11*
X95960000Y-106600000D03*
D12*
X93420000Y-107500000D03*
D11*
X93420000Y-106600000D03*
D10*
X90880000Y-107500000D03*
D11*
X90880000Y-106600000D03*
D10*
X88340000Y-107500000D03*
D11*
X88340000Y-106600000D03*
D10*
X136370000Y-118930000D03*
D13*
X137270000Y-118930000D03*
D12*
X136370000Y-116390000D03*
D13*
X137270000Y-116390000D03*
D10*
X136370000Y-113850000D03*
D13*
X137270000Y-113850000D03*
D14*
X129000000Y-69437500D03*
X129000000Y-72562500D03*
D15*
X170262500Y-74500000D03*
X173237500Y-74500000D03*
D16*
X94937500Y-91500000D03*
X98062500Y-91500000D03*
D17*
X154750000Y-67950000D03*
X154750000Y-71050000D03*
D18*
X99500000Y-44000000D03*
D19*
X96960000Y-41460000D03*
X96960000Y-46540000D03*
X102040000Y-41460000D03*
X102040000Y-46540000D03*
D20*
X120987500Y-66000000D03*
X118012500Y-66000000D03*
D21*
X111417500Y-93520000D03*
X114517500Y-93520000D03*
D17*
X114000000Y-69950000D03*
X114000000Y-73050000D03*
D22*
X144000000Y-49500000D03*
D21*
X117950000Y-58000000D03*
X121050000Y-58000000D03*
D23*
X170300000Y-58000000D03*
X167200000Y-58000000D03*
D24*
X98062500Y-99500000D03*
X94937500Y-99500000D03*
D12*
X141500000Y-119000000D03*
D10*
X141500000Y-116460000D03*
X141500000Y-113920000D03*
D21*
X160700000Y-58000000D03*
X163800000Y-58000000D03*
D23*
X165800000Y-79500000D03*
X162700000Y-79500000D03*
D12*
X154760000Y-110500000D03*
D10*
X157300000Y-110500000D03*
X159840000Y-110500000D03*
X162380000Y-110500000D03*
X164920000Y-110500000D03*
X167460000Y-110500000D03*
X170000000Y-110500000D03*
D23*
X147050000Y-65500000D03*
X143950000Y-65500000D03*
X147150000Y-77500000D03*
X144050000Y-77500000D03*
D25*
X141000000Y-76012500D03*
X141000000Y-78987500D03*
D14*
X154750000Y-61437500D03*
X154750000Y-64562500D03*
D26*
X125000000Y-79062500D03*
X125000000Y-75937500D03*
D27*
X89500000Y-134000000D03*
D22*
X98500000Y-74000000D03*
X166000000Y-102500000D03*
D28*
X110000000Y-133000000D03*
X110000000Y-129900000D03*
D26*
X169750000Y-82562500D03*
X169750000Y-79437500D03*
D15*
X95012500Y-95500000D03*
X97987500Y-95500000D03*
D27*
X178500000Y-45000000D03*
D14*
X154750000Y-80937500D03*
X154750000Y-84062500D03*
D23*
X165800000Y-66000000D03*
X162700000Y-66000000D03*
D29*
X98000000Y-132987500D03*
X98000000Y-130012500D03*
D30*
X136595000Y-69975000D03*
X137865000Y-69975000D03*
X139135000Y-69975000D03*
X140405000Y-69975000D03*
X140405000Y-65025000D03*
X139135000Y-65025000D03*
X137865000Y-65025000D03*
X136595000Y-65025000D03*
D23*
X147050000Y-61500000D03*
X143950000Y-61500000D03*
D15*
X88450000Y-89044887D03*
X91425000Y-89044887D03*
D12*
X103800000Y-97500000D03*
D10*
X106340000Y-97500000D03*
X108880000Y-97500000D03*
X111420000Y-97500000D03*
X113960000Y-97500000D03*
X116500000Y-97500000D03*
X119040000Y-97500000D03*
X121580000Y-97500000D03*
X124120000Y-97500000D03*
X126660000Y-97500000D03*
X129200000Y-97500000D03*
X131740000Y-97500000D03*
X134280000Y-97500000D03*
X136820000Y-97500000D03*
D22*
X134000000Y-49500000D03*
D27*
X89500000Y-45000000D03*
D14*
X169750000Y-62937500D03*
X169750000Y-66062500D03*
D21*
X111462500Y-81500000D03*
X114562500Y-81500000D03*
D16*
X170187500Y-70500000D03*
X173312500Y-70500000D03*
D14*
X118000000Y-69937500D03*
X118000000Y-73062500D03*
D28*
X133000000Y-72550000D03*
X133000000Y-69450000D03*
D26*
X141000000Y-59562500D03*
X141000000Y-56437500D03*
D12*
X113720000Y-135000000D03*
D10*
X116260000Y-135000000D03*
X118800000Y-135000000D03*
X121340000Y-135000000D03*
X123880000Y-135000000D03*
X126420000Y-135000000D03*
X128960000Y-135000000D03*
X131500000Y-135000000D03*
X134040000Y-135000000D03*
X136580000Y-135000000D03*
D12*
X154700000Y-132500000D03*
D10*
X157240000Y-132500000D03*
X159780000Y-132500000D03*
X162320000Y-132500000D03*
D14*
X129000000Y-62937500D03*
X129000000Y-66062500D03*
D28*
X158750000Y-71050000D03*
X158750000Y-67950000D03*
D14*
X125000000Y-69437500D03*
X125000000Y-72562500D03*
D22*
X93500000Y-74000000D03*
D23*
X165800000Y-62000000D03*
X162700000Y-62000000D03*
D24*
X91500000Y-93044887D03*
X88375000Y-93044887D03*
D16*
X143987500Y-69500000D03*
X147112500Y-69500000D03*
D22*
X144000000Y-83500000D03*
D29*
X106000000Y-132987500D03*
X106000000Y-130012500D03*
D28*
X154750000Y-77550000D03*
X154750000Y-74450000D03*
D26*
X129000000Y-79062500D03*
X129000000Y-75937500D03*
D12*
X177500000Y-57080000D03*
D10*
X177500000Y-54540000D03*
X177500000Y-52000000D03*
D17*
X158750000Y-74450000D03*
X158750000Y-77550000D03*
D22*
X161000000Y-102500000D03*
D28*
X133000000Y-79050000D03*
X133000000Y-75950000D03*
D22*
X176000000Y-102500000D03*
X134000000Y-83500000D03*
D21*
X144000000Y-73500000D03*
X147100000Y-73500000D03*
D31*
X95550000Y-58000000D03*
D32*
X95637500Y-59500000D03*
D31*
X95550000Y-61000000D03*
D33*
X114350000Y-61550000D03*
X113080000Y-61550000D03*
X111810000Y-61550000D03*
X110540000Y-61550000D03*
X109270000Y-61550000D03*
X108000000Y-61550000D03*
X106730000Y-61550000D03*
X105460000Y-61550000D03*
X105460000Y-66500000D03*
X106730000Y-66500000D03*
X108000000Y-66500000D03*
X109270000Y-66500000D03*
X110540000Y-66500000D03*
X111810000Y-66500000D03*
X113080000Y-66500000D03*
X114350000Y-66500000D03*
D16*
X118000000Y-62000000D03*
X121125000Y-62000000D03*
D22*
X139000000Y-49500000D03*
D34*
X96500000Y-87000000D03*
D35*
X96500000Y-85000000D03*
D14*
X129000000Y-56437500D03*
X129000000Y-59562500D03*
D15*
X89512500Y-61000000D03*
X92487500Y-61000000D03*
D24*
X92562500Y-65000000D03*
X89437500Y-65000000D03*
D28*
X137000000Y-79000000D03*
X137000000Y-75900000D03*
D14*
X158750000Y-80937500D03*
X158750000Y-84062500D03*
D20*
X114500000Y-85500000D03*
X111525000Y-85500000D03*
D28*
X106000000Y-73050000D03*
X106000000Y-69950000D03*
D22*
X171000000Y-102500000D03*
D24*
X92562500Y-69000000D03*
X89437500Y-69000000D03*
D28*
X133000000Y-59550000D03*
X133000000Y-56450000D03*
D26*
X125000000Y-66062500D03*
X125000000Y-62937500D03*
D21*
X89450000Y-57000000D03*
X92550000Y-57000000D03*
D28*
X110000000Y-73050000D03*
X110000000Y-69950000D03*
D30*
X162845000Y-74975000D03*
X164115000Y-74975000D03*
X165385000Y-74975000D03*
X166655000Y-74975000D03*
X166655000Y-70025000D03*
X165385000Y-70025000D03*
X164115000Y-70025000D03*
X162845000Y-70025000D03*
D22*
X88500000Y-74000000D03*
D16*
X88375000Y-85044887D03*
X91500000Y-85044887D03*
D34*
X89937500Y-99500000D03*
D35*
X89937500Y-97500000D03*
D22*
X139000000Y-83500000D03*
D23*
X165800000Y-83500000D03*
X162700000Y-83500000D03*
D20*
X114500000Y-89500000D03*
X111525000Y-89500000D03*
D16*
X143937500Y-57500000D03*
X147062500Y-57500000D03*
D14*
X125000000Y-56437500D03*
X125000000Y-59562500D03*
D24*
X98562500Y-65000000D03*
X95437500Y-65000000D03*
D12*
X103500000Y-86500000D03*
D10*
X103500000Y-89040000D03*
X103500000Y-91580000D03*
D28*
X137000000Y-59550000D03*
X137000000Y-56450000D03*
X133000000Y-66050000D03*
X133000000Y-62950000D03*
X102000000Y-133050000D03*
X102000000Y-129950000D03*
D24*
X98562500Y-54000000D03*
X95437500Y-54000000D03*
D36*
X169500000Y-49800000D03*
D37*
X167000000Y-48100000D03*
D38*
X164500000Y-41500000D03*
D37*
X160000000Y-45000000D03*
D39*
X160300000Y-52600000D03*
D26*
X158750000Y-64562500D03*
X158750000Y-61437500D03*
D27*
X178500000Y-134000000D03*
M02*
