G04 #@! TF.GenerationSoftware,KiCad,Pcbnew,8.0.8*
G04 #@! TF.CreationDate,2025-02-28T08:34:03-05:00*
G04 #@! TF.ProjectId,VWS_SDR,5657535f-5344-4522-9e6b-696361645f70,rev?*
G04 #@! TF.SameCoordinates,Original*
G04 #@! TF.FileFunction,Paste,Top*
G04 #@! TF.FilePolarity,Positive*
%FSLAX46Y46*%
G04 Gerber Fmt 4.6, Leading zero omitted, Abs format (unit mm)*
G04 Created by KiCad (PCBNEW 8.0.8) date 2025-02-28 08:34:03*
%MOMM*%
%LPD*%
G01*
G04 APERTURE LIST*
G04 Aperture macros list*
%AMRoundRect*
0 Rectangle with rounded corners*
0 $1 Rounding radius*
0 $2 $3 $4 $5 $6 $7 $8 $9 X,Y pos of 4 corners*
0 Add a 4 corners polygon primitive as box body*
4,1,4,$2,$3,$4,$5,$6,$7,$8,$9,$2,$3,0*
0 Add four circle primitives for the rounded corners*
1,1,$1+$1,$2,$3*
1,1,$1+$1,$4,$5*
1,1,$1+$1,$6,$7*
1,1,$1+$1,$8,$9*
0 Add four rect primitives between the rounded corners*
20,1,$1+$1,$2,$3,$4,$5,0*
20,1,$1+$1,$4,$5,$6,$7,0*
20,1,$1+$1,$6,$7,$8,$9,0*
20,1,$1+$1,$8,$9,$2,$3,0*%
%AMFreePoly0*
4,1,9,3.862500,-0.866500,0.737500,-0.866500,0.737500,-0.450000,-0.737500,-0.450000,-0.737500,0.450000,0.737500,0.450000,0.737500,0.866500,3.862500,0.866500,3.862500,-0.866500,3.862500,-0.866500,$1*%
G04 Aperture macros list end*
%ADD10RoundRect,0.250000X-0.650000X0.412500X-0.650000X-0.412500X0.650000X-0.412500X0.650000X0.412500X0*%
%ADD11RoundRect,0.250001X-0.462499X-0.624999X0.462499X-0.624999X0.462499X0.624999X-0.462499X0.624999X0*%
%ADD12RoundRect,0.250000X-0.412500X-0.650000X0.412500X-0.650000X0.412500X0.650000X-0.412500X0.650000X0*%
%ADD13RoundRect,0.250000X-0.625000X0.400000X-0.625000X-0.400000X0.625000X-0.400000X0.625000X0.400000X0*%
%ADD14RoundRect,0.250001X0.462499X0.624999X-0.462499X0.624999X-0.462499X-0.624999X0.462499X-0.624999X0*%
%ADD15RoundRect,0.250000X-0.400000X-0.625000X0.400000X-0.625000X0.400000X0.625000X-0.400000X0.625000X0*%
%ADD16RoundRect,0.250000X0.400000X0.625000X-0.400000X0.625000X-0.400000X-0.625000X0.400000X-0.625000X0*%
%ADD17RoundRect,0.250000X0.412500X0.650000X-0.412500X0.650000X-0.412500X-0.650000X0.412500X-0.650000X0*%
%ADD18RoundRect,0.250001X-0.624999X0.462499X-0.624999X-0.462499X0.624999X-0.462499X0.624999X0.462499X0*%
%ADD19RoundRect,0.250000X0.650000X-0.412500X0.650000X0.412500X-0.650000X0.412500X-0.650000X-0.412500X0*%
%ADD20RoundRect,0.250000X0.625000X-0.400000X0.625000X0.400000X-0.625000X0.400000X-0.625000X-0.400000X0*%
%ADD21RoundRect,0.250001X0.624999X-0.462499X0.624999X0.462499X-0.624999X0.462499X-0.624999X-0.462499X0*%
%ADD22RoundRect,0.150000X0.150000X-0.825000X0.150000X0.825000X-0.150000X0.825000X-0.150000X-0.825000X0*%
%ADD23RoundRect,0.225000X-0.425000X-0.225000X0.425000X-0.225000X0.425000X0.225000X-0.425000X0.225000X0*%
%ADD24FreePoly0,0.000000*%
%ADD25RoundRect,0.150000X-0.150000X0.825000X-0.150000X-0.825000X0.150000X-0.825000X0.150000X0.825000X0*%
G04 APERTURE END LIST*
D10*
X129000000Y-69437500D03*
X129000000Y-72562500D03*
D11*
X170262500Y-74500000D03*
X173237500Y-74500000D03*
D12*
X94937500Y-91500000D03*
X98062500Y-91500000D03*
D13*
X154750000Y-67950000D03*
X154750000Y-71050000D03*
D14*
X120987500Y-66000000D03*
X118012500Y-66000000D03*
D15*
X111417500Y-93520000D03*
X114517500Y-93520000D03*
D13*
X114000000Y-69950000D03*
X114000000Y-73050000D03*
D15*
X117950000Y-58000000D03*
X121050000Y-58000000D03*
D16*
X170300000Y-58000000D03*
X167200000Y-58000000D03*
D17*
X98062500Y-99500000D03*
X94937500Y-99500000D03*
D15*
X160700000Y-58000000D03*
X163800000Y-58000000D03*
D16*
X165800000Y-79500000D03*
X162700000Y-79500000D03*
X147050000Y-65500000D03*
X143950000Y-65500000D03*
X147150000Y-77500000D03*
X144050000Y-77500000D03*
D18*
X141000000Y-76012500D03*
X141000000Y-78987500D03*
D10*
X154750000Y-61437500D03*
X154750000Y-64562500D03*
D19*
X125000000Y-79062500D03*
X125000000Y-75937500D03*
D20*
X110000000Y-133000000D03*
X110000000Y-129900000D03*
D19*
X169750000Y-82562500D03*
X169750000Y-79437500D03*
D11*
X95012500Y-95500000D03*
X97987500Y-95500000D03*
D10*
X154750000Y-80937500D03*
X154750000Y-84062500D03*
D16*
X165800000Y-66000000D03*
X162700000Y-66000000D03*
D21*
X98000000Y-132987500D03*
X98000000Y-130012500D03*
D22*
X136595000Y-69975000D03*
X137865000Y-69975000D03*
X139135000Y-69975000D03*
X140405000Y-69975000D03*
X140405000Y-65025000D03*
X139135000Y-65025000D03*
X137865000Y-65025000D03*
X136595000Y-65025000D03*
D16*
X147050000Y-61500000D03*
X143950000Y-61500000D03*
D11*
X88450000Y-89044887D03*
X91425000Y-89044887D03*
D10*
X169750000Y-62937500D03*
X169750000Y-66062500D03*
D15*
X111462500Y-81500000D03*
X114562500Y-81500000D03*
D12*
X170187500Y-70500000D03*
X173312500Y-70500000D03*
D10*
X118000000Y-69937500D03*
X118000000Y-73062500D03*
D20*
X133000000Y-72550000D03*
X133000000Y-69450000D03*
D19*
X141000000Y-59562500D03*
X141000000Y-56437500D03*
D10*
X129000000Y-62937500D03*
X129000000Y-66062500D03*
D20*
X158750000Y-71050000D03*
X158750000Y-67950000D03*
D10*
X125000000Y-69437500D03*
X125000000Y-72562500D03*
D16*
X165800000Y-62000000D03*
X162700000Y-62000000D03*
D17*
X91500000Y-93044887D03*
X88375000Y-93044887D03*
D12*
X143987500Y-69500000D03*
X147112500Y-69500000D03*
D21*
X106000000Y-132987500D03*
X106000000Y-130012500D03*
D20*
X154750000Y-77550000D03*
X154750000Y-74450000D03*
D19*
X129000000Y-79062500D03*
X129000000Y-75937500D03*
D13*
X158750000Y-74450000D03*
X158750000Y-77550000D03*
D20*
X133000000Y-79050000D03*
X133000000Y-75950000D03*
D15*
X144000000Y-73500000D03*
X147100000Y-73500000D03*
D23*
X95550000Y-58000000D03*
D24*
X95637500Y-59500000D03*
D23*
X95550000Y-61000000D03*
D25*
X114350000Y-61550000D03*
X113080000Y-61550000D03*
X111810000Y-61550000D03*
X110540000Y-61550000D03*
X109270000Y-61550000D03*
X108000000Y-61550000D03*
X106730000Y-61550000D03*
X105460000Y-61550000D03*
X105460000Y-66500000D03*
X106730000Y-66500000D03*
X108000000Y-66500000D03*
X109270000Y-66500000D03*
X110540000Y-66500000D03*
X111810000Y-66500000D03*
X113080000Y-66500000D03*
X114350000Y-66500000D03*
D12*
X118000000Y-62000000D03*
X121125000Y-62000000D03*
D10*
X129000000Y-56437500D03*
X129000000Y-59562500D03*
D11*
X89512500Y-61000000D03*
X92487500Y-61000000D03*
D17*
X92562500Y-65000000D03*
X89437500Y-65000000D03*
D20*
X137000000Y-79000000D03*
X137000000Y-75900000D03*
D10*
X158750000Y-80937500D03*
X158750000Y-84062500D03*
D14*
X114500000Y-85500000D03*
X111525000Y-85500000D03*
D20*
X106000000Y-73050000D03*
X106000000Y-69950000D03*
D17*
X92562500Y-69000000D03*
X89437500Y-69000000D03*
D20*
X133000000Y-59550000D03*
X133000000Y-56450000D03*
D19*
X125000000Y-66062500D03*
X125000000Y-62937500D03*
D15*
X89450000Y-57000000D03*
X92550000Y-57000000D03*
D20*
X110000000Y-73050000D03*
X110000000Y-69950000D03*
D22*
X162845000Y-74975000D03*
X164115000Y-74975000D03*
X165385000Y-74975000D03*
X166655000Y-74975000D03*
X166655000Y-70025000D03*
X165385000Y-70025000D03*
X164115000Y-70025000D03*
X162845000Y-70025000D03*
D12*
X88375000Y-85044887D03*
X91500000Y-85044887D03*
D16*
X165800000Y-83500000D03*
X162700000Y-83500000D03*
D14*
X114500000Y-89500000D03*
X111525000Y-89500000D03*
D12*
X143937500Y-57500000D03*
X147062500Y-57500000D03*
D10*
X125000000Y-56437500D03*
X125000000Y-59562500D03*
D17*
X98562500Y-65000000D03*
X95437500Y-65000000D03*
D20*
X137000000Y-59550000D03*
X137000000Y-56450000D03*
X133000000Y-66050000D03*
X133000000Y-62950000D03*
X102000000Y-133050000D03*
X102000000Y-129950000D03*
D17*
X98562500Y-54000000D03*
X95437500Y-54000000D03*
D19*
X158750000Y-64562500D03*
X158750000Y-61437500D03*
M02*
