%TF.GenerationSoftware,KiCad,Pcbnew,8.0.8*%
%TF.CreationDate,2025-02-28T08:34:14-05:00*%
%TF.ProjectId,VWS_SDR,5657535f-5344-4522-9e6b-696361645f70,rev?*%
%TF.SameCoordinates,Original*%
%TF.FileFunction,Drillmap*%
%TF.FilePolarity,Positive*%
%FSLAX45Y45*%
G04 Gerber Fmt 4.5, Leading zero omitted, Abs format (unit mm)*
G04 Created by KiCad (PCBNEW 8.0.8) date 2025-02-28 08:34:14*
%MOMM*%
%LPD*%
G01*
G04 APERTURE LIST*
%ADD10C,0.050000*%
%ADD11C,0.120000*%
%ADD12C,0.200000*%
G04 APERTURE END LIST*
D10*
X8400000Y-3950000D02*
X18400000Y-3950000D01*
X18400000Y-13950000D01*
X8400000Y-13950000D01*
X8400000Y-3950000D01*
D11*
X15093000Y-11050000D02*
G75*
G02*
X14843000Y-11050000I-125000J0D01*
G01*
X14843000Y-11050000D02*
G75*
G02*
X15093000Y-11050000I125000J0D01*
G01*
X17633000Y-11050000D02*
G75*
G02*
X17383000Y-11050000I-125000J0D01*
G01*
X17383000Y-11050000D02*
G75*
G02*
X17633000Y-11050000I125000J0D01*
G01*
D12*
X8658277Y-14263984D02*
X8658277Y-14063984D01*
X8658277Y-14063984D02*
X8705896Y-14063984D01*
X8705896Y-14063984D02*
X8734467Y-14073508D01*
X8734467Y-14073508D02*
X8753515Y-14092555D01*
X8753515Y-14092555D02*
X8763039Y-14111603D01*
X8763039Y-14111603D02*
X8772563Y-14149698D01*
X8772563Y-14149698D02*
X8772563Y-14178269D01*
X8772563Y-14178269D02*
X8763039Y-14216365D01*
X8763039Y-14216365D02*
X8753515Y-14235412D01*
X8753515Y-14235412D02*
X8734467Y-14254460D01*
X8734467Y-14254460D02*
X8705896Y-14263984D01*
X8705896Y-14263984D02*
X8658277Y-14263984D01*
X8858277Y-14263984D02*
X8858277Y-14130650D01*
X8858277Y-14168746D02*
X8867801Y-14149698D01*
X8867801Y-14149698D02*
X8877324Y-14140174D01*
X8877324Y-14140174D02*
X8896372Y-14130650D01*
X8896372Y-14130650D02*
X8915420Y-14130650D01*
X8982086Y-14263984D02*
X8982086Y-14130650D01*
X8982086Y-14063984D02*
X8972563Y-14073508D01*
X8972563Y-14073508D02*
X8982086Y-14083031D01*
X8982086Y-14083031D02*
X8991610Y-14073508D01*
X8991610Y-14073508D02*
X8982086Y-14063984D01*
X8982086Y-14063984D02*
X8982086Y-14083031D01*
X9105896Y-14263984D02*
X9086848Y-14254460D01*
X9086848Y-14254460D02*
X9077324Y-14235412D01*
X9077324Y-14235412D02*
X9077324Y-14063984D01*
X9210658Y-14263984D02*
X9191610Y-14254460D01*
X9191610Y-14254460D02*
X9182086Y-14235412D01*
X9182086Y-14235412D02*
X9182086Y-14063984D01*
X9439229Y-14263984D02*
X9439229Y-14063984D01*
X9439229Y-14063984D02*
X9505896Y-14206841D01*
X9505896Y-14206841D02*
X9572563Y-14063984D01*
X9572563Y-14063984D02*
X9572563Y-14263984D01*
X9753515Y-14263984D02*
X9753515Y-14159222D01*
X9753515Y-14159222D02*
X9743991Y-14140174D01*
X9743991Y-14140174D02*
X9724944Y-14130650D01*
X9724944Y-14130650D02*
X9686848Y-14130650D01*
X9686848Y-14130650D02*
X9667801Y-14140174D01*
X9753515Y-14254460D02*
X9734467Y-14263984D01*
X9734467Y-14263984D02*
X9686848Y-14263984D01*
X9686848Y-14263984D02*
X9667801Y-14254460D01*
X9667801Y-14254460D02*
X9658277Y-14235412D01*
X9658277Y-14235412D02*
X9658277Y-14216365D01*
X9658277Y-14216365D02*
X9667801Y-14197317D01*
X9667801Y-14197317D02*
X9686848Y-14187793D01*
X9686848Y-14187793D02*
X9734467Y-14187793D01*
X9734467Y-14187793D02*
X9753515Y-14178269D01*
X9848753Y-14130650D02*
X9848753Y-14330650D01*
X9848753Y-14140174D02*
X9867801Y-14130650D01*
X9867801Y-14130650D02*
X9905896Y-14130650D01*
X9905896Y-14130650D02*
X9924944Y-14140174D01*
X9924944Y-14140174D02*
X9934467Y-14149698D01*
X9934467Y-14149698D02*
X9943991Y-14168746D01*
X9943991Y-14168746D02*
X9943991Y-14225888D01*
X9943991Y-14225888D02*
X9934467Y-14244936D01*
X9934467Y-14244936D02*
X9924944Y-14254460D01*
X9924944Y-14254460D02*
X9905896Y-14263984D01*
X9905896Y-14263984D02*
X9867801Y-14263984D01*
X9867801Y-14263984D02*
X9848753Y-14254460D01*
X10029705Y-14244936D02*
X10039229Y-14254460D01*
X10039229Y-14254460D02*
X10029705Y-14263984D01*
X10029705Y-14263984D02*
X10020182Y-14254460D01*
X10020182Y-14254460D02*
X10029705Y-14244936D01*
X10029705Y-14244936D02*
X10029705Y-14263984D01*
X10029705Y-14140174D02*
X10039229Y-14149698D01*
X10039229Y-14149698D02*
X10029705Y-14159222D01*
X10029705Y-14159222D02*
X10020182Y-14149698D01*
X10020182Y-14149698D02*
X10029705Y-14140174D01*
X10029705Y-14140174D02*
X10029705Y-14159222D01*
M02*
