M48
; DRILL file {KiCad 8.0.8} date 2025-02-28T08:34:12-0500
; FORMAT={-:-/ absolute / metric / decimal}
; #@! TF.CreationDate,2025-02-28T08:34:12-05:00
; #@! TF.GenerationSoftware,Kicad,Pcbnew,8.0.8
; #@! TF.FileFunction,Plated,1,4,PTH
FMAT,2
METRIC
; #@! TA.AperFunction,Plated,PTH,ViaDrill
T1C0.300
; #@! TA.AperFunction,Plated,PTH,ViaDrill
T2C0.400
; #@! TA.AperFunction,Plated,PTH,ViaDrill
T3C0.600
; #@! TA.AperFunction,Plated,PTH,ViaDrill
T4C0.800
; #@! TA.AperFunction,Plated,PTH,ComponentDrill
T5C0.800
; #@! TA.AperFunction,Plated,PTH,ComponentDrill
T6C1.000
; #@! TA.AperFunction,Plated,PTH,ComponentDrill
T7C1.020
; #@! TA.AperFunction,Plated,PTH,ComponentDrill
T8C1.500
; #@! TA.AperFunction,Plated,PTH,ComponentDrill
T9C1.700
; #@! TA.AperFunction,Plated,PTH,ComponentDrill
T10C3.200
%
G90
G05
T1
X85.105Y-40.755
X85.105Y-43.295
X85.105Y-45.835
X85.105Y-48.375
X85.105Y-50.915
X85.105Y-53.455
X85.105Y-55.995
X85.105Y-58.535
X85.105Y-61.075
X85.105Y-63.615
X85.105Y-66.155
X85.105Y-68.695
X85.105Y-71.235
X85.105Y-73.775
X85.105Y-76.315
X85.105Y-78.855
X85.105Y-81.395
X85.105Y-83.935
X85.105Y-86.475
X85.105Y-89.015
X85.105Y-91.555
X85.105Y-94.095
X85.105Y-96.635
X85.105Y-99.175
X85.105Y-101.715
X85.105Y-104.255
X85.105Y-106.795
X85.105Y-109.335
X85.105Y-111.875
X85.105Y-114.415
X85.105Y-116.955
X85.105Y-119.495
X85.105Y-122.035
X85.105Y-124.575
X85.105Y-127.115
X85.105Y-129.655
X85.105Y-132.195
X85.105Y-134.735
X85.105Y-137.275
X87.645Y-40.755
X87.645Y-50.915
X87.645Y-53.455
X87.645Y-76.315
X87.645Y-78.855
X87.645Y-81.395
X87.645Y-129.655
X89.5Y-91.0
X89.5Y-95.0
X90.0Y-103.5
X90.185Y-40.755
X90.185Y-50.915
X90.185Y-109.335
X90.185Y-111.875
X90.185Y-114.415
X90.185Y-116.955
X90.185Y-119.495
X91.0Y-63.0
X91.0Y-67.0
X92.5Y-103.5
X92.725Y-40.755
X92.725Y-48.375
X92.725Y-50.915
X92.725Y-71.235
X92.725Y-76.315
X92.725Y-78.855
X92.725Y-81.395
X92.725Y-101.715
X92.725Y-109.335
X92.725Y-111.875
X92.725Y-114.415
X92.725Y-116.955
X92.725Y-119.495
X92.725Y-137.275
X93.5Y-59.0
X94.0Y-63.0
X94.0Y-67.0
X95.0Y-103.5
X95.265Y-43.295
X95.265Y-48.375
X95.265Y-50.915
X95.265Y-68.695
X95.265Y-71.235
X95.265Y-76.315
X95.265Y-78.855
X95.265Y-81.395
X95.265Y-101.715
X95.265Y-109.335
X95.265Y-111.875
X95.265Y-114.415
X95.265Y-116.955
X95.265Y-119.495
X95.265Y-129.655
X95.265Y-137.275
X96.5Y-89.5
X97.0Y-63.0
X97.0Y-93.5
X97.5Y-103.5
X97.805Y-50.915
X97.805Y-55.995
X97.805Y-76.315
X97.805Y-78.855
X97.805Y-81.395
X97.805Y-109.335
X97.805Y-111.875
X97.805Y-114.415
X97.805Y-116.955
X97.805Y-119.495
X97.805Y-137.275
X99.0Y-62.5
X100.345Y-55.995
X100.345Y-58.535
X100.345Y-61.075
X100.345Y-66.155
X100.345Y-68.695
X100.345Y-71.235
X100.345Y-73.775
X100.345Y-76.315
X100.345Y-78.855
X100.345Y-81.395
X100.345Y-83.935
X100.345Y-86.475
X100.345Y-99.175
X100.345Y-101.715
X100.345Y-109.335
X100.345Y-111.875
X100.345Y-114.415
X100.345Y-116.955
X100.345Y-119.495
X100.5Y-103.5
X102.885Y-50.915
X102.885Y-53.455
X102.885Y-55.995
X102.885Y-58.535
X102.885Y-61.075
X102.885Y-63.615
X102.885Y-66.155
X102.885Y-68.695
X102.885Y-71.235
X102.885Y-73.775
X102.885Y-76.315
X102.885Y-78.855
X102.885Y-81.395
X102.885Y-83.935
X102.885Y-94.095
X102.885Y-109.335
X102.885Y-111.875
X102.885Y-114.415
X102.885Y-116.955
X102.885Y-119.495
X105.425Y-40.755
X105.425Y-43.295
X105.425Y-45.835
X105.425Y-48.375
X105.425Y-50.915
X105.425Y-53.455
X105.425Y-55.995
X105.425Y-58.535
X105.425Y-76.315
X105.425Y-91.555
X105.425Y-101.715
X105.425Y-109.335
X105.425Y-111.875
X105.425Y-114.415
X105.425Y-116.955
X105.425Y-119.495
X107.0Y-100.5
X107.0Y-103.0
X107.965Y-40.755
X107.965Y-43.295
X107.965Y-45.835
X107.965Y-48.375
X107.965Y-50.915
X107.965Y-53.455
X107.965Y-55.995
X107.965Y-58.535
X107.965Y-91.555
X107.965Y-109.335
X107.965Y-111.875
X107.965Y-114.415
X107.965Y-116.955
X107.965Y-119.495
X107.965Y-129.655
X110.505Y-40.755
X110.505Y-43.295
X110.505Y-45.835
X110.505Y-48.375
X110.505Y-50.915
X110.505Y-53.455
X110.505Y-55.995
X110.505Y-78.855
X110.505Y-91.555
X110.505Y-109.335
X110.505Y-111.875
X110.505Y-114.415
X110.505Y-116.955
X110.505Y-119.495
X113.045Y-40.755
X113.045Y-43.295
X113.045Y-45.835
X113.045Y-48.375
X113.045Y-50.915
X113.045Y-53.455
X113.045Y-91.555
X113.045Y-101.715
X113.045Y-109.335
X113.045Y-111.875
X113.045Y-114.415
X113.045Y-116.955
X113.045Y-119.495
X113.045Y-129.655
X113.045Y-132.195
X114.5Y-131.0
X115.0Y-100.5
X115.0Y-103.0
X115.5Y-77.0
X115.585Y-40.755
X115.585Y-43.295
X115.585Y-45.835
X115.585Y-48.375
X115.585Y-50.915
X115.585Y-53.455
X115.585Y-109.335
X115.585Y-111.875
X115.585Y-114.415
X115.585Y-116.955
X115.585Y-119.495
X117.5Y-79.0
X118.125Y-40.755
X118.125Y-43.295
X118.125Y-45.835
X118.125Y-48.375
X118.125Y-50.915
X118.125Y-53.455
X118.125Y-86.475
X118.125Y-89.015
X118.125Y-91.555
X118.125Y-99.175
X118.125Y-101.715
X118.125Y-109.335
X118.125Y-111.875
X118.125Y-114.415
X118.125Y-116.955
X118.125Y-119.495
X118.125Y-129.655
X118.125Y-132.195
X120.0Y-100.5
X120.0Y-103.0
X120.0Y-131.0
X120.665Y-40.755
X120.665Y-43.295
X120.665Y-45.835
X120.665Y-48.375
X120.665Y-50.915
X120.665Y-53.455
X120.665Y-89.015
X120.665Y-91.555
X120.665Y-109.335
X120.665Y-111.875
X120.665Y-114.415
X120.665Y-116.955
X120.665Y-119.495
X121.5Y-83.0
X123.205Y-40.755
X123.205Y-43.295
X123.205Y-45.835
X123.205Y-48.375
X123.205Y-50.915
X123.205Y-53.455
X123.205Y-58.535
X123.205Y-61.075
X123.205Y-71.235
X123.205Y-73.775
X123.205Y-91.555
X123.205Y-109.335
X123.205Y-111.875
X123.205Y-114.415
X123.205Y-116.955
X123.205Y-119.495
X123.5Y-85.0
X125.5Y-87.0
X125.745Y-40.755
X125.745Y-43.295
X125.745Y-45.835
X125.745Y-48.375
X125.745Y-50.915
X125.745Y-53.455
X125.745Y-61.075
X125.745Y-109.335
X125.745Y-111.875
X125.745Y-114.415
X125.745Y-116.955
X125.745Y-119.495
X127.5Y-89.0
X128.285Y-40.755
X128.285Y-43.295
X128.285Y-45.835
X128.285Y-48.375
X128.285Y-50.915
X128.285Y-53.455
X128.285Y-61.075
X128.285Y-83.935
X128.285Y-109.335
X128.285Y-111.875
X128.285Y-114.415
X128.285Y-116.955
X128.285Y-119.495
X130.825Y-40.755
X130.825Y-43.295
X130.825Y-45.835
X130.825Y-48.375
X130.825Y-61.075
X130.825Y-68.695
X130.825Y-73.775
X130.825Y-83.935
X130.825Y-86.475
X130.825Y-91.555
X130.825Y-99.175
X130.825Y-101.715
X130.825Y-109.335
X130.825Y-111.875
X130.825Y-114.415
X130.825Y-116.955
X130.825Y-119.495
X130.825Y-129.655
X130.825Y-132.195
X132.5Y-131.0
X133.0Y-100.5
X133.0Y-103.0
X133.365Y-40.755
X133.365Y-43.295
X133.365Y-45.835
X133.365Y-53.455
X133.365Y-61.075
X133.365Y-86.475
X133.365Y-89.015
X133.365Y-91.555
X133.365Y-109.335
X133.365Y-111.875
X133.365Y-114.415
X133.365Y-116.955
X133.365Y-119.495
X135.905Y-40.755
X135.905Y-43.295
X135.905Y-45.835
X135.905Y-48.375
X135.905Y-50.915
X135.905Y-53.455
X135.905Y-83.935
X135.905Y-86.475
X135.905Y-89.015
X135.905Y-91.555
X135.905Y-109.335
X135.905Y-111.875
X138.445Y-40.755
X138.445Y-43.295
X138.445Y-45.835
X138.445Y-73.775
X138.445Y-86.475
X138.445Y-89.015
X138.445Y-91.555
X138.445Y-99.175
X138.445Y-101.715
X138.445Y-104.255
X138.445Y-106.795
X138.445Y-109.335
X138.445Y-111.875
X138.445Y-124.575
X138.445Y-127.115
X138.445Y-129.655
X138.445Y-132.195
X138.445Y-134.735
X140.985Y-40.755
X140.985Y-43.295
X140.985Y-45.835
X140.985Y-48.375
X140.985Y-83.935
X140.985Y-86.475
X140.985Y-89.015
X140.985Y-91.555
X140.985Y-101.715
X140.985Y-104.255
X140.985Y-106.795
X140.985Y-109.335
X140.985Y-111.875
X140.985Y-124.575
X140.985Y-127.115
X140.985Y-129.655
X140.985Y-132.195
X140.985Y-134.735
X143.525Y-40.755
X143.525Y-43.295
X143.525Y-45.835
X143.525Y-53.455
X143.525Y-86.475
X143.525Y-89.015
X143.525Y-91.555
X143.525Y-96.635
X143.525Y-104.255
X143.525Y-106.795
X143.525Y-109.335
X143.525Y-111.875
X143.525Y-114.415
X143.525Y-116.955
X143.525Y-119.495
X143.525Y-124.575
X143.525Y-127.115
X143.525Y-129.655
X143.525Y-132.195
X143.525Y-134.735
X146.065Y-40.755
X146.065Y-43.295
X146.065Y-45.835
X146.065Y-48.375
X146.065Y-50.915
X146.065Y-53.455
X146.065Y-83.935
X146.065Y-86.475
X146.065Y-89.015
X146.065Y-91.555
X146.065Y-96.635
X146.065Y-99.175
X146.065Y-106.795
X146.065Y-109.335
X146.065Y-111.875
X146.065Y-114.415
X146.065Y-116.955
X146.065Y-119.495
X146.065Y-124.575
X146.065Y-127.115
X146.065Y-129.655
X146.065Y-132.195
X146.065Y-134.735
X148.605Y-40.755
X148.605Y-43.295
X148.605Y-45.835
X148.605Y-48.375
X148.605Y-50.915
X148.605Y-53.455
X148.605Y-55.995
X148.605Y-58.535
X148.605Y-61.075
X148.605Y-66.155
X148.605Y-68.695
X148.605Y-71.235
X148.605Y-73.775
X148.605Y-76.315
X148.605Y-83.935
X148.605Y-86.475
X148.605Y-89.015
X148.605Y-91.555
X148.605Y-96.635
X148.605Y-99.175
X148.605Y-101.715
X148.605Y-114.415
X148.605Y-116.955
X148.605Y-119.495
X148.605Y-124.575
X148.605Y-127.115
X148.605Y-129.655
X148.605Y-132.195
X148.605Y-134.735
X151.145Y-40.755
X151.145Y-43.295
X151.145Y-45.835
X151.145Y-48.375
X151.145Y-50.915
X151.145Y-53.455
X151.145Y-55.995
X151.145Y-58.535
X151.145Y-61.075
X151.145Y-68.695
X151.145Y-71.235
X151.145Y-73.775
X151.145Y-76.315
X151.145Y-83.935
X151.145Y-86.475
X151.145Y-89.015
X151.145Y-91.555
X151.145Y-96.635
X151.145Y-99.175
X151.145Y-101.715
X151.145Y-104.255
X151.145Y-114.415
X151.145Y-116.955
X151.145Y-119.495
X151.145Y-127.115
X151.145Y-129.655
X151.145Y-132.195
X151.145Y-134.735
X153.685Y-40.755
X153.685Y-43.295
X153.685Y-45.835
X153.685Y-48.375
X153.685Y-50.915
X153.685Y-53.455
X153.685Y-55.995
X153.685Y-58.535
X153.685Y-86.475
X153.685Y-89.015
X153.685Y-91.555
X153.685Y-96.635
X153.685Y-99.175
X153.685Y-101.715
X153.685Y-104.255
X153.685Y-106.795
X153.685Y-134.735
X156.225Y-40.755
X156.225Y-43.295
X156.225Y-45.835
X156.225Y-48.375
X156.225Y-50.915
X156.225Y-53.455
X156.225Y-55.995
X156.225Y-86.475
X156.225Y-89.015
X156.225Y-91.555
X156.225Y-96.635
X156.225Y-99.175
X156.225Y-101.715
X156.225Y-104.255
X156.225Y-106.795
X156.225Y-114.415
X156.225Y-116.955
X156.225Y-119.495
X156.225Y-122.035
X156.225Y-124.575
X156.225Y-134.735
X158.765Y-40.755
X158.765Y-48.375
X158.765Y-55.995
X158.765Y-86.475
X158.765Y-89.015
X158.765Y-91.555
X158.765Y-96.635
X158.765Y-99.175
X158.765Y-101.715
X158.765Y-104.255
X158.765Y-106.795
X158.765Y-114.415
X158.765Y-116.955
X158.765Y-119.495
X158.765Y-122.035
X158.765Y-124.575
X158.765Y-127.115
X161.305Y-40.755
X161.305Y-48.375
X161.305Y-55.995
X161.305Y-86.475
X161.305Y-89.015
X161.305Y-91.555
X161.305Y-96.635
X161.305Y-99.175
X161.305Y-106.795
X161.305Y-114.415
X161.305Y-116.955
X161.305Y-119.495
X161.305Y-122.035
X161.305Y-124.575
X161.305Y-127.115
X161.305Y-129.655
X161.305Y-137.275
X163.845Y-86.475
X163.845Y-89.015
X163.845Y-99.175
X163.845Y-101.715
X163.845Y-104.255
X163.845Y-106.795
X163.845Y-114.415
X163.845Y-116.955
X163.845Y-119.495
X163.845Y-122.035
X163.845Y-124.575
X163.845Y-127.115
X163.845Y-129.655
X163.845Y-134.735
X163.845Y-137.275
X165.0Y-94.0
X166.385Y-50.915
X166.385Y-53.455
X166.385Y-55.995
X166.385Y-86.475
X166.385Y-89.015
X166.385Y-106.795
X166.385Y-114.415
X166.385Y-116.955
X166.385Y-119.495
X166.385Y-122.035
X166.385Y-124.575
X166.385Y-127.115
X166.385Y-129.655
X166.385Y-132.195
X166.385Y-134.735
X166.385Y-137.275
X167.0Y-96.0
X168.5Y-103.0
X168.925Y-40.755
X168.925Y-43.295
X168.925Y-86.475
X168.925Y-89.015
X168.925Y-91.555
X168.925Y-114.415
X168.925Y-116.955
X168.925Y-119.495
X168.925Y-122.035
X168.925Y-124.575
X168.925Y-127.115
X168.925Y-129.655
X168.925Y-132.195
X168.925Y-134.735
X168.925Y-137.275
X169.0Y-98.0
X171.0Y-100.0
X171.465Y-40.755
X171.465Y-43.295
X171.465Y-45.835
X171.465Y-50.915
X171.465Y-53.455
X171.465Y-61.075
X171.465Y-63.615
X171.465Y-66.155
X171.465Y-68.695
X171.465Y-81.395
X171.465Y-83.935
X171.465Y-86.475
X171.465Y-89.015
X171.465Y-91.555
X171.465Y-94.095
X171.465Y-106.795
X171.465Y-111.875
X171.465Y-114.415
X171.465Y-116.955
X171.465Y-119.495
X171.465Y-122.035
X171.465Y-124.575
X171.465Y-127.115
X171.465Y-129.655
X171.465Y-132.195
X171.465Y-134.735
X171.465Y-137.275
X173.5Y-102.0
X174.005Y-40.755
X174.005Y-43.295
X174.005Y-45.835
X174.005Y-48.375
X174.005Y-53.455
X174.005Y-58.535
X174.005Y-61.075
X174.005Y-63.615
X174.005Y-66.155
X174.005Y-68.695
X174.005Y-81.395
X174.005Y-83.935
X174.005Y-86.475
X174.005Y-89.015
X174.005Y-91.555
X174.005Y-94.095
X174.005Y-96.635
X174.005Y-104.255
X174.005Y-114.415
X174.005Y-116.955
X174.005Y-119.495
X174.005Y-122.035
X174.005Y-124.575
X174.005Y-127.115
X174.005Y-129.655
X174.005Y-132.195
X174.005Y-134.735
X174.005Y-137.275
X176.545Y-40.755
X176.545Y-61.075
X176.545Y-63.615
X176.545Y-66.155
X176.545Y-68.695
X176.545Y-71.235
X176.545Y-73.775
X176.545Y-76.315
X176.545Y-78.855
X176.545Y-81.395
X176.545Y-83.935
X176.545Y-86.475
X176.545Y-89.015
X176.545Y-91.555
X176.545Y-94.095
X176.545Y-96.635
X176.545Y-99.175
X176.545Y-106.795
X176.545Y-114.415
X176.545Y-116.955
X176.545Y-119.495
X176.545Y-122.035
X176.545Y-124.575
X176.545Y-127.115
X176.545Y-129.655
X179.085Y-40.755
X179.085Y-61.075
X179.085Y-63.615
X179.085Y-66.155
X179.085Y-68.695
X179.085Y-71.235
X179.085Y-73.775
X179.085Y-76.315
X179.085Y-78.855
X179.085Y-81.395
X179.085Y-83.935
X179.085Y-86.475
X179.085Y-89.015
X179.085Y-91.555
X179.085Y-94.095
X179.085Y-96.635
X179.085Y-99.175
X179.085Y-101.715
X179.085Y-104.255
X179.085Y-106.795
X179.085Y-109.335
X179.085Y-111.875
X179.085Y-114.415
X179.085Y-116.955
X179.085Y-119.495
X179.085Y-122.035
X179.085Y-124.575
X179.085Y-127.115
X179.085Y-129.655
X181.625Y-40.755
X181.625Y-48.375
X181.625Y-50.915
X181.625Y-53.455
X181.625Y-55.995
X181.625Y-58.535
X181.625Y-61.075
X181.625Y-63.615
X181.625Y-66.155
X181.625Y-68.695
X181.625Y-71.235
X181.625Y-73.775
X181.625Y-76.315
X181.625Y-78.855
X181.625Y-81.395
X181.625Y-83.935
X181.625Y-86.475
X181.625Y-89.015
X181.625Y-91.555
X181.625Y-94.095
X181.625Y-96.635
X181.625Y-99.175
X181.625Y-101.715
X181.625Y-104.255
X181.625Y-106.795
X181.625Y-109.335
X181.625Y-111.875
X181.625Y-114.415
X181.625Y-116.955
X181.625Y-119.495
X181.625Y-122.035
X181.625Y-124.575
X181.625Y-127.115
X181.625Y-129.655
X181.625Y-137.275
T2
X112.0Y-67.962
X112.0Y-71.5
X113.0Y-63.5
X115.5Y-63.725
X115.5Y-67.0
X116.0Y-59.0
X116.0Y-71.0
X116.5Y-62.0
X116.5Y-66.0
X137.0Y-63.0
X139.5Y-61.0
X141.0Y-74.5
X141.5Y-68.0
X142.5Y-65.5
X142.719Y-61.281
X145.0Y-63.0
X155.0Y-79.5
X162.0Y-68.5
X162.225Y-76.5
X163.0Y-77.5
X163.5Y-71.5
X165.202Y-71.702
X165.202Y-77.977
X166.5Y-73.0
X167.5Y-61.5
X169.5Y-61.5
X169.5Y-68.5
T3
X93.5Y-89.5
X95.0Y-97.5
T4
X107.5Y-82.5
X110.0Y-76.0
X121.0Y-68.0
X141.0Y-81.0
X173.0Y-77.0
T5
X89.938Y-97.5
X89.938Y-99.5
X96.5Y-85.0
X96.5Y-87.0
T6
X88.5Y-74.0
X93.5Y-74.0
X98.5Y-74.0
X103.5Y-86.5
X103.5Y-89.04
X103.5Y-91.58
X103.8Y-97.5
X106.34Y-97.5
X108.88Y-97.5
X111.42Y-97.5
X113.72Y-135.0
X113.96Y-97.5
X116.26Y-135.0
X116.5Y-97.5
X118.8Y-135.0
X119.04Y-97.5
X121.34Y-135.0
X121.58Y-97.5
X123.88Y-135.0
X124.12Y-97.5
X126.42Y-135.0
X126.66Y-97.5
X128.96Y-135.0
X129.2Y-97.5
X131.5Y-135.0
X131.74Y-97.5
X134.0Y-49.5
X134.0Y-83.5
X134.04Y-135.0
X134.28Y-97.5
X136.58Y-135.0
X136.82Y-97.5
X139.0Y-49.5
X139.0Y-83.5
X141.5Y-113.92
X141.5Y-116.46
X141.5Y-119.0
X144.0Y-49.5
X144.0Y-83.5
X154.7Y-132.5
X154.76Y-110.5
X157.24Y-132.5
X157.3Y-110.5
X159.78Y-132.5
X159.84Y-110.5
X161.0Y-102.5
X162.32Y-132.5
X162.38Y-110.5
X164.92Y-110.5
X166.0Y-102.5
X167.46Y-110.5
X170.0Y-110.5
X171.0Y-102.5
X176.0Y-102.5
X177.5Y-52.0
X177.5Y-54.54
X177.5Y-57.08
T7
X88.34Y-107.5
X88.34Y-125.28
X90.88Y-107.5
X90.88Y-125.28
X93.42Y-107.5
X93.42Y-125.28
X95.96Y-107.5
X95.96Y-125.28
X98.5Y-107.5
X98.5Y-125.28
X101.04Y-107.5
X101.04Y-125.28
X103.58Y-107.5
X103.58Y-125.28
X106.12Y-107.5
X106.12Y-125.28
X108.66Y-107.5
X108.66Y-125.28
X111.2Y-107.5
X111.2Y-125.28
X113.74Y-107.5
X113.74Y-125.28
X116.28Y-107.5
X116.28Y-125.28
X118.82Y-107.5
X118.82Y-125.28
X121.36Y-107.5
X121.36Y-125.28
X123.9Y-107.5
X123.9Y-125.28
X126.44Y-107.5
X126.44Y-125.28
X128.98Y-107.5
X128.98Y-125.28
X131.52Y-107.5
X131.52Y-125.28
X134.06Y-107.5
X134.06Y-125.28
X136.37Y-113.85
X136.37Y-116.39
X136.37Y-118.93
X136.6Y-107.5
X136.6Y-125.28
T8
X99.5Y-44.0
T9
X96.96Y-41.46
X96.96Y-46.54
X102.04Y-41.46
X102.04Y-46.54
T10
X89.5Y-45.0
X89.5Y-134.0
X178.5Y-45.0
X178.5Y-134.0
T6
X160.0Y-44.5G85X160.0Y-45.5
G05
X159.8Y-52.6G85X160.8Y-52.6
G05
X165.0Y-41.5G85X164.0Y-41.5
G05
X167.0Y-47.6G85X167.0Y-48.6
G05
X169.5Y-49.3G85X169.5Y-50.3
G05
M30
