G04 #@! TF.GenerationSoftware,KiCad,Pcbnew,8.0.8*
G04 #@! TF.CreationDate,2025-02-28T08:34:03-05:00*
G04 #@! TF.ProjectId,VWS_SDR,5657535f-5344-4522-9e6b-696361645f70,rev?*
G04 #@! TF.SameCoordinates,Original*
G04 #@! TF.FileFunction,Legend,Bot*
G04 #@! TF.FilePolarity,Positive*
%FSLAX46Y46*%
G04 Gerber Fmt 4.6, Leading zero omitted, Abs format (unit mm)*
G04 Created by KiCad (PCBNEW 8.0.8) date 2025-02-28 08:34:03*
%MOMM*%
%LPD*%
G01*
G04 APERTURE LIST*
%ADD10O,1.700000X1.700000*%
%ADD11R,1.700000X1.700000*%
%ADD12C,2.050000*%
%ADD13C,2.250000*%
%ADD14C,2.000000*%
%ADD15C,5.700000*%
%ADD16R,1.600000X1.600000*%
%ADD17C,1.600000*%
%ADD18O,1.500000X3.000000*%
%ADD19O,2.500000X3.500000*%
%ADD20O,3.500000X2.500000*%
%ADD21O,3.100000X2.100000*%
G04 APERTURE END LIST*
%LPC*%
D10*
X88340000Y-125280000D03*
X90880000Y-125280000D03*
D11*
X93420000Y-125280000D03*
D10*
X95960000Y-125280000D03*
X98500000Y-125280000D03*
X101040000Y-125280000D03*
X103580000Y-125280000D03*
D11*
X106120000Y-125280000D03*
D10*
X108660000Y-125280000D03*
X111200000Y-125280000D03*
X113740000Y-125280000D03*
X116280000Y-125280000D03*
D11*
X118820000Y-125280000D03*
D10*
X121360000Y-125280000D03*
X123900000Y-125280000D03*
X126440000Y-125280000D03*
X128980000Y-125280000D03*
D11*
X131520000Y-125280000D03*
D10*
X134060000Y-125280000D03*
X136600000Y-125280000D03*
X136600000Y-107500000D03*
X134060000Y-107500000D03*
D11*
X131520000Y-107500000D03*
D10*
X128980000Y-107500000D03*
X126440000Y-107500000D03*
X123900000Y-107500000D03*
X121360000Y-107500000D03*
D11*
X118820000Y-107500000D03*
D10*
X116280000Y-107500000D03*
X113740000Y-107500000D03*
X111200000Y-107500000D03*
X108660000Y-107500000D03*
D11*
X106120000Y-107500000D03*
D10*
X103580000Y-107500000D03*
X101040000Y-107500000D03*
X98500000Y-107500000D03*
X95960000Y-107500000D03*
D11*
X93420000Y-107500000D03*
D10*
X90880000Y-107500000D03*
X88340000Y-107500000D03*
X136370000Y-118930000D03*
D11*
X136370000Y-116390000D03*
D10*
X136370000Y-113850000D03*
D12*
X99500000Y-44000000D03*
D13*
X96960000Y-41460000D03*
X96960000Y-46540000D03*
X102040000Y-41460000D03*
X102040000Y-46540000D03*
D14*
X144000000Y-49500000D03*
D11*
X141500000Y-119000000D03*
D10*
X141500000Y-116460000D03*
X141500000Y-113920000D03*
D11*
X154760000Y-110500000D03*
D10*
X157300000Y-110500000D03*
X159840000Y-110500000D03*
X162380000Y-110500000D03*
X164920000Y-110500000D03*
X167460000Y-110500000D03*
X170000000Y-110500000D03*
D15*
X89500000Y-134000000D03*
D14*
X98500000Y-74000000D03*
X166000000Y-102500000D03*
D15*
X178500000Y-45000000D03*
D11*
X103800000Y-97500000D03*
D10*
X106340000Y-97500000D03*
X108880000Y-97500000D03*
X111420000Y-97500000D03*
X113960000Y-97500000D03*
X116500000Y-97500000D03*
X119040000Y-97500000D03*
X121580000Y-97500000D03*
X124120000Y-97500000D03*
X126660000Y-97500000D03*
X129200000Y-97500000D03*
X131740000Y-97500000D03*
X134280000Y-97500000D03*
X136820000Y-97500000D03*
D14*
X134000000Y-49500000D03*
D15*
X89500000Y-45000000D03*
D11*
X113720000Y-135000000D03*
D10*
X116260000Y-135000000D03*
X118800000Y-135000000D03*
X121340000Y-135000000D03*
X123880000Y-135000000D03*
X126420000Y-135000000D03*
X128960000Y-135000000D03*
X131500000Y-135000000D03*
X134040000Y-135000000D03*
X136580000Y-135000000D03*
D11*
X154700000Y-132500000D03*
D10*
X157240000Y-132500000D03*
X159780000Y-132500000D03*
X162320000Y-132500000D03*
D14*
X93500000Y-74000000D03*
X144000000Y-83500000D03*
D11*
X177500000Y-57080000D03*
D10*
X177500000Y-54540000D03*
X177500000Y-52000000D03*
D14*
X161000000Y-102500000D03*
X176000000Y-102500000D03*
X134000000Y-83500000D03*
X139000000Y-49500000D03*
D16*
X96500000Y-87000000D03*
D17*
X96500000Y-85000000D03*
D14*
X171000000Y-102500000D03*
X88500000Y-74000000D03*
D16*
X89937500Y-99500000D03*
D17*
X89937500Y-97500000D03*
D14*
X139000000Y-83500000D03*
D11*
X103500000Y-86500000D03*
D10*
X103500000Y-89040000D03*
X103500000Y-91580000D03*
D18*
X169500000Y-49800000D03*
D19*
X167000000Y-48100000D03*
D20*
X164500000Y-41500000D03*
D19*
X160000000Y-45000000D03*
D21*
X160300000Y-52600000D03*
D15*
X178500000Y-134000000D03*
%LPD*%
M02*
